<svg class="svg-icon" style="vertical-align: middle;" width="20" height="20" fill="#fff" overflow="hidden"
  viewBox="0 0 1024 1024" version="1.1" xmlns="http://www.w3.org/2000/svg">
  <path d="M419.84 531.968a25.088 23.552 0 1 0 50.176 0 25.088 23.552 0 1 0-50.176 0Z" fill="" />
  <path
    d="M787.456 390.144H192.512a57.856 57.856 0 0 0-58.88 56.832v289.792a57.856 57.856 0 0 0 58.88 56.832h48.128v-149.504a30.208 30.208 0 0 1 30.208-29.696h438.784a30.208 30.208 0 0 1 30.208 30.208v148.992h48.128a57.856 57.856 0 0 0 58.88-56.832V446.976a57.856 57.856 0 0 0-59.392-56.832z m-494.08 194.048a51.2 51.2 0 1 1 54.272-51.2 51.2 51.2 0 0 1-54.272 51.2z m153.6 0a51.2 51.2 0 1 1 54.272-51.2 51.2 51.2 0 0 1-56.32 51.2z"
    fill="" />
  <path d="M268.288 531.968a25.088 23.552 0 1 0 50.176 0 25.088 23.552 0 1 0-50.176 0Z" fill="" />
  <path
    d="M688.64 637.952H291.84a28.672 28.672 0 0 0-29.184 28.16v169.984a28.672 28.672 0 0 0 29.184 28.16h396.8a28.672 28.672 0 0 0 29.184-28.16V665.6a28.672 28.672 0 0 0-29.184-27.648zM643.072 819.2h-307.2a18.432 18.432 0 0 1 0-36.352h307.2a18.432 18.432 0 0 1 0 36.352z m0-72.192h-307.2a18.432 18.432 0 0 1 0-36.352h307.2a18.432 18.432 0 0 1 0 36.352zM716.8 168.448a28.672 28.672 0 0 0-29.184-28.16H291.84a28.672 28.672 0 0 0-29.184 28.16v198.144H716.8z m-74.752 153.6h-307.2a18.432 18.432 0 0 1 0-36.352h307.2a18.432 18.432 0 0 1 0 36.352z m0-72.192h-307.2a18.432 18.432 0 0 1 0-36.352h307.2a18.432 18.432 0 0 1 0 36.352z"
    fill="" />
</svg>