<svg width="20" height="20" viewBox="0 0 20 20" fill="none" xmlns="http://www.w3.org/2000/svg">
<g clip-path="url(#clip0_3818_25491)">
<path d="M19.1641 17.501V15.8344C19.1635 15.0958 18.9177 14.3784 18.4652 13.7946C18.0127 13.2109 17.3792 12.794 16.6641 12.6094" stroke="#C5CAD5" stroke-width="2" stroke-linecap="round" stroke-linejoin="round"/>
<path d="M14.1693 17.5V15.8333C14.1693 14.9493 13.8181 14.1014 13.193 13.4763C12.5678 12.8512 11.72 12.5 10.8359 12.5H4.16927C3.28522 12.5 2.43737 12.8512 1.81225 13.4763C1.18713 14.1014 0.835938 14.9493 0.835938 15.8333V17.5" stroke="#C5CAD5" stroke-width="2" stroke-linecap="round" stroke-linejoin="round"/>
<path d="M13.3359 2.60938C14.053 2.79296 14.6885 3.20996 15.1423 3.79463C15.5961 4.37931 15.8425 5.0984 15.8425 5.83854C15.8425 6.57868 15.5961 7.29777 15.1423 7.88245C14.6885 8.46712 14.053 8.88412 13.3359 9.06771" stroke="#C5CAD5" stroke-width="2" stroke-linecap="round" stroke-linejoin="round"/>
<path d="M7.4974 9.16667C9.33835 9.16667 10.8307 7.67428 10.8307 5.83333C10.8307 3.99238 9.33835 2.5 7.4974 2.5C5.65645 2.5 4.16406 3.99238 4.16406 5.83333C4.16406 7.67428 5.65645 9.16667 7.4974 9.16667Z" stroke="#C5CAD5" stroke-width="2" stroke-linecap="round" stroke-linejoin="round"/>
</g>
<defs>
<clipPath id="clip0_3818_25491">
<rect width="20" height="20" fill="white"/>
</clipPath>
</defs>
</svg>
