<?xml version="1.0" standalone="no"?>
<!DOCTYPE svg PUBLIC "-//W3C//DTD SVG 20010904//EN"
 "http://www.w3.org/TR/2001/REC-SVG-20010904/DTD/svg10.dtd">
<svg version="1.0" xmlns="http://www.w3.org/2000/svg"
 width="20" height="20" viewBox="0 0 100 100"
 preserveAspectRatio="xMidYMid meet">

<g transform="translate(0.000000,100.000000) scale(0.100000,-0.100000)"
fill="#FFFFFF" stroke="none">
<path d="M755 891 c-11 -5 -31 -21 -45 -36 -32 -34 -35 -112 -6 -144 19 -21
19 -22 -20 -62 -38 -39 -39 -42 -39 -112 l0 -71 40 -12 c51 -16 179 -16 230 0
l40 12 0 71 c0 70 -1 73 -39 112 -39 40 -39 41 -20 62 13 15 19 36 19 70 0 41
-5 53 -31 80 -33 33 -92 46 -129 30z m100 -56 c16 -15 25 -36 25 -55 0 -19 -9
-40 -25 -55 -15 -16 -36 -25 -55 -25 -19 0 -40 9 -55 25 -16 15 -25 36 -25 55
0 19 9 40 25 55 15 16 36 25 55 25 19 0 40 -9 55 -25z m0 -189 c40 -17 65 -60
65 -114 0 -38 -2 -40 -37 -46 -21 -3 -58 -6 -83 -6 -25 0 -62 3 -82 6 -36 6
-38 8 -38 46 0 98 82 152 175 114z"/>
<path d="M45 847 c-3 -7 -4 -91 -3 -187 l3 -175 195 0 195 0 0 185 0 185 -193
3 c-151 2 -194 0 -197 -11z m355 -177 l0 -150 -160 0 -160 0 0 150 0 150 160
0 160 0 0 -150z"/>
<path d="M165 770 c-14 -22 12 -31 81 -28 53 2 69 6 69 18 0 12 -16 16 -72 18
-45 2 -74 -1 -78 -8z"/>
<path d="M225 428 c-3 -8 -4 -79 -3 -158 l3 -145 295 0 295 0 3 104 3 104 29
-28 c24 -23 33 -26 42 -17 10 10 1 24 -40 65 l-52 52 -52 -52 c-41 -41 -50
-55 -40 -65 9 -9 18 -6 42 17 l30 29 0 -87 0 -87 -260 0 -259 0 -3 137 c-2 98
-7 138 -15 141 -7 2 -15 -3 -18 -10z"/>
</g>
</svg>
