<svg width="15" height="15" viewBox="0 0 15 15" fill="none" xmlns="http://www.w3.org/2000/svg">
<path d="M0.16471 0.164708C0.0695793 0.259866 0.0117071 0.385972 0.00159243 0.520147C-0.00852223 0.654322 0.0297907 0.787679 0.109581 0.896025L0.16471 0.960155L3.19121 3.98668C1.71577 5.02057 0.662438 6.55165 0.22434 8.2992C0.192081 8.44256 0.217195 8.59285 0.29431 8.71793C0.371425 8.84301 0.494419 8.93295 0.636991 8.96852C0.779562 9.00409 0.930391 8.98247 1.05722 8.90827C1.18406 8.83407 1.27682 8.71319 1.31568 8.57148C1.7047 7.02045 2.663 5.67256 4.00015 4.79563L5.35814 6.15363C4.8134 6.7199 4.51251 7.47726 4.52012 8.26298C4.52773 9.0487 4.84323 9.80008 5.39884 10.3557C5.95445 10.9113 6.70583 11.2268 7.49154 11.2344C8.27726 11.242 9.0346 10.9411 9.60087 10.3964L14.0405 14.836C14.1409 14.936 14.2753 14.9944 14.4169 14.9996C14.5585 15.0048 14.6968 14.9564 14.8042 14.864C14.9116 14.7716 14.9803 14.6421 14.9964 14.5014C15.0125 14.3606 14.9749 14.219 14.8911 14.1047L14.8359 14.0406L10.2512 9.45468V9.45356L9.3511 8.5546L7.1988 6.40228H7.19992L5.03974 4.24321V4.24208L4.1903 3.39375L0.960152 0.164708C0.854659 0.0592454 0.711598 0 0.562431 0C0.413264 0 0.270204 0.0592454 0.16471 0.164708ZM6.15358 6.94908L8.8043 9.60094C8.45024 9.9408 7.97708 10.1283 7.48633 10.1233C6.99558 10.1183 6.52636 9.92111 6.17933 9.57407C5.8323 9.22704 5.63512 8.75781 5.6301 8.26706C5.62507 7.77631 5.81261 7.30314 6.15246 6.94908H6.15358ZM7.50032 2.62531C6.74988 2.62531 6.02195 2.73557 5.33339 2.94371L6.26159 3.8708C7.86644 3.5529 9.53208 3.86386 10.9141 4.73938C12.2962 5.6149 13.289 6.98802 13.6872 8.57485C13.7261 8.71656 13.8188 8.83744 13.9457 8.91164C14.0725 8.98584 14.2233 9.00747 14.3659 8.9719C14.5085 8.93633 14.6315 8.84639 14.7086 8.7213C14.7857 8.59622 14.8108 8.44593 14.7786 8.30258C14.3716 6.68051 13.4344 5.24089 12.1157 4.21232C10.7971 3.18375 9.17266 2.62518 7.50032 2.62531ZM7.64658 5.25805L10.4976 8.10793C10.461 7.3636 10.1489 6.65947 9.62199 6.13251C9.09503 5.60556 8.39091 5.29346 7.64658 5.25692V5.25805Z" fill="black"/>
</svg>
