<svg width="15" height="10" viewBox="0 0 15 10" fill="none" xmlns="http://www.w3.org/2000/svg">
<path d="M7.49846 3.04563C7.9036 3.04563 8.30479 3.13557 8.67909 3.31032C9.0534 3.48506 9.39351 3.74119 9.67999 4.06408C9.96647 4.38696 10.1937 4.77028 10.3488 5.19215C10.5038 5.61403 10.5836 6.06619 10.5836 6.52282C10.5836 6.97945 10.5038 7.43161 10.3488 7.85348C10.1937 8.27535 9.96647 8.65867 9.67999 8.98156C9.39351 9.30444 9.0534 9.56057 8.67909 9.73531C8.30479 9.91006 7.9036 10 7.49846 10C6.68022 10 5.8955 9.63365 5.31692 8.98156C4.73834 8.32946 4.4133 7.44502 4.4133 6.52282C4.4133 5.60061 4.73834 4.71617 5.31692 4.06408C5.8955 3.41198 6.68022 3.04563 7.49846 3.04563ZM7.49846 4.34941C6.98702 4.34941 6.49653 4.5784 6.1349 4.98599C5.77326 5.39358 5.57009 5.94639 5.57009 6.52282C5.57009 7.09924 5.77326 7.65205 6.1349 8.05964C6.49653 8.46724 6.98702 8.69622 7.49846 8.69622C8.00989 8.69622 8.50038 8.46724 8.86202 8.05964C9.22366 7.65205 9.42682 7.09924 9.42682 6.52282C9.42682 5.94639 9.22366 5.39358 8.86202 4.98599C8.50038 4.5784 8.00989 4.34941 7.49846 4.34941ZM7.49846 0C11.0567 0 14.1269 2.73794 14.9794 6.57497C14.9998 6.65875 15.0051 6.74628 14.9951 6.83242C14.985 6.91855 14.9598 7.00155 14.9208 7.07654C14.8819 7.15153 14.8301 7.21699 14.7684 7.26908C14.7067 7.32117 14.6364 7.35884 14.5616 7.37987C14.4868 7.4009 14.4091 7.40487 14.3329 7.39155C14.2567 7.37822 14.1837 7.34787 14.1181 7.30227C14.0524 7.25668 13.9956 7.19676 13.9508 7.12605C13.906 7.05533 13.8742 6.97524 13.8573 6.89048C13.4994 5.29501 12.6793 3.87977 11.5271 2.86898C10.3748 1.85818 8.95622 1.30963 7.49608 1.31023C6.03593 1.31083 4.61771 1.86054 3.4661 2.87228C2.31449 3.88402 1.49534 5.29993 1.13843 6.8957C1.10027 7.06232 1.00521 7.20518 0.873963 7.29312C0.74272 7.38106 0.58595 7.40694 0.437843 7.36512C0.289735 7.3233 0.162307 7.21718 0.0833477 7.06989C0.00438873 6.9226 -0.0196947 6.7461 0.0163498 6.57888C0.434755 4.69942 1.3982 3.03134 2.75373 1.83945C4.10927 0.647552 5.77921 0.000143926 7.49846 0Z" fill="black"/>
</svg>
