<?xml version="1.0" encoding="UTF-8"?>
<svg id="Layer_2" data-name="Layer 2" xmlns="http://www.w3.org/2000/svg" viewBox="0 0 384 384" width="20" height="20">
  <g id="Layer_1-2" data-name="Layer 1">
    <g>
      <path
        d="m98.74,111.71c-.27-4.5,2.13-7.85,5.5-10.04,6.24-4.04,12.61-8.06,19.38-11.03,8.63-3.79,17.68-6.63,26.63-9.64,2.4-.81,3.61-1.75,4.09-4.41,2.09-11.53,5.16-22.8,10.24-33.42,1.02-2.13,2.22-4.17,3.35-6.25,5.02-9.23,12.79-12.39,22.9-10.35,3.9.78,7.83,1.47,11.68,2.45,6.8,1.73,13.46,1.51,20.29-.07,5.78-1.34,11.75-1.94,17.65-2.71,5.7-.74,10.2,1.83,12.98,6.45,3.24,5.4,6.42,11.05,8.25,17.02,2.72,8.88,4.37,18.1,6.15,27.24.46,2.33,1.33,3.24,3.48,4.03,11.2,4.09,22.46,8.07,33.4,12.78,4.94,2.13,9.36,5.62,13.7,8.92,3.21,2.44,4.64,6,4.25,10.25-.36,3.92-1.52,5.33-5.39,4.74-6.39-.97-12.72-2.3-19.07-3.51-15.43-2.94-30.99-5.03-46.68-5.63-18.43-.7-36.88-1.38-55.31-1.22-22.43.19-44.81,1.8-66.95,5.67-6.98,1.22-13.92,2.68-20.88,4.03-.97.19-1.95.39-2.93.51-5.74.65-6.7-.19-6.7-5.81Z" />
      <path
        d="m211.15,118.87c20.33-.15,40.6.68,60.81,3.04,2.38.28,2.75,1.21,2.89,3.22,2.17,30.33-20.45,59.51-50.42,64.95-35.25,6.41-66.99-14.96-74.18-50.14-.96-4.71-.78-9.65-1.22-14.48-.27-2.95,1.2-3.92,3.89-4.04,17.17-.82,34.34-1.71,51.5-2.54,2.24-.11,4.49-.01,6.73-.01Z" />
      <path
        d="m80.4,209.7h10.27v-4.01c0-17.96,0-35.93.02-53.89,0-1.48.04-3.02.44-4.42.82-2.83,3.64-4.6,6.29-4.22,2.84.4,4.87,2.58,5.12,5.57.09,1.12.05,2.24.05,3.37,0,17.71,0,35.43,0,53.14,0,1.35,0,2.71,0,4.02,4.76.53,8.9-1.97,10.32-6.39.63-1.97.82-4.16.83-6.25.07-15.47-.01-30.94.11-46.4.01-1.73.61-3.73,1.61-5.12,1.28-1.77,3.41-2.42,5.71-1.72,2.36.72,3.82,2.33,4.34,4.69.24,1.08.16,2.23.16,3.35,0,15.47.03,30.94,0,46.4-.03,14.18-9.37,23.71-23.51,24.05-2.72.06-5.45,0-8.65,0v132.74h-16.26c0-1.42,0-2.86,0-4.3,0-41.16,0-82.33,0-123.49,0-1-.05-2,0-2.99.09-1.65-.74-2.16-2.28-2.13-2.24.04-4.49.02-6.73-.09-11.34-.56-20.82-9.5-21.08-20.8-.39-17.08-.21-34.18-.17-51.26,0-3.87,2.53-6.43,5.85-6.44,3.35-.01,5.98,2.73,6.04,6.76.12,8.36.04,16.71.05,25.07.01,8.23-.08,16.47.09,24.7.11,5.44,3.48,8.95,9.37,9.86,0-1.4,0-2.72,0-4.03,0-17.71,0-35.43.02-53.14,0-1.61.05-3.26.42-4.82.64-2.69,3.19-4.5,5.78-4.4,2.65.1,5.01,2.04,5.5,4.75.27,1.46.27,2.98.27,4.47.02,17.59.01,35.18.01,52.77,0,1.46,0,2.93,0,4.6Z" />
      <path
        d="m212.1,275.89c-12.22,0-24.43-.11-36.65.08-3.05.05-3.73-1.13-3.99-3.83-1.82-18.71-3.74-37.41-5.75-56.1-.22-2.05.31-2.89,2.28-3.37,20.49-4.95,41.19-7.36,62.22-4.64,8.49,1.1,16.87,3.05,25.32,4.44,2.5.41,2.93,1.62,2.7,3.82-.86,8.05-1.59,16.11-2.43,24.16-1.13,10.77-2.43,21.53-3.39,32.31-.24,2.71-1.25,3.21-3.66,3.19-12.22-.1-24.43-.04-36.65-.04Z" />
      <path
        d="m271.74,275.43c1.94-18.75,3.85-37.28,5.84-56.56,6.47,2.69,12.46,4.97,18.28,7.64,9.99,4.6,19.26,10.43,28.03,17.06,9.03,6.83,13.87,15.82,13.9,27.21.05,19.58-.02,39.16.07,58.73.01,2.59-.76,3.41-3.38,3.39-14.21-.11-28.43-.1-42.65,0-2.49.02-3.37-.72-3.69-3.3-1.89-15.07-3.98-30.11-6.07-45.15-.87-6.22-2.47-7.57-10.32-9.02Z" />
      <path
        d="m146.51,219.41c1.98,18.91,3.9,37.35,5.81,55.66-.39.35-.56.63-.76.66-7.3,1.06-8.49,2.26-9.49,9.52-1.99,14.42-3.99,28.85-6,43.27-.19,1.34-.54,2.66-.85,4.16h-33.93c-.08-1.32-.21-2.52-.21-3.71-.01-27.56.02-55.11-.05-82.67,0-2.32.52-3.83,2.6-5.18,12.65-8.28,25.96-15.24,40.04-20.75.8-.31,1.63-.54,2.84-.94Z" />
      <path
        d="m261.47,282.19c3.34.07,5.82,2.68,5.72,6.03-.09,3.22-2.93,5.94-6.07,5.82-3.13-.11-5.9-3.06-5.79-6.17.11-3.28,2.79-5.75,6.15-5.68Z" />
      <path
        d="m163.12,282.2c3.31.02,5.97,2.66,5.94,5.9-.03,3.1-2.94,5.98-6.03,5.95-3.23-.02-5.84-2.73-5.82-6.04.02-3.4,2.5-5.84,5.91-5.82Z" />
    </g>
  </g>
</svg>