<svg id="Group_39" data-name="Group 39" xmlns="http://www.w3.org/2000/svg" width="512" height="512" viewBox="-17 -7 100 100">
  <path id="Path_61" data-name="Path 61" d="M64.378,28.757,58.844,16.448A27.881,27.881,0,0,0,33.416,0h0A27.879,27.879,0,0,0,7.987,16.448L2.453,28.757A27.87,27.87,0,0,0,0,40.191v3.435A27.87,27.87,0,0,0,2.453,55.06L7.987,67.369a27.833,27.833,0,0,0,4.15,6.57C7.81,65.056,7.886,52.28,19.7,37.216,36.666,15.578,34.275,6.126,34.275,6.126s6.037,13.325-4.442,31.318S20.2,72.075,31.769,80.834c4.214,3.188,12.186,2.961,14.805-9S45.093,49.4,40.652,45.871c0,0-11.388,11.957-4.783,32.571,0,0-11.275-6.833-7.972-22.435S38.715,39.721,39.513,26.738c0,0,19.132,21.411,15.829,40.771a28.3,28.3,0,0,1-2.994,8.868,27.815,27.815,0,0,0,6.494-9.009l5.534-12.309A27.889,27.889,0,0,0,66.83,43.625V40.189a27.87,27.87,0,0,0-2.453-11.434Z" fill="#c62035"/>
</svg>
