<?xml version="1.0" encoding="UTF-8"?>
<svg id="Layer_2" data-name="Layer 2" xmlns="http://www.w3.org/2000/svg" width="16px" height="16px"
  viewBox="0 0 180 259.7">
  <g id="Layer_1-2" data-name="Layer 1">
    <g>
      <path fill="none" stroke="#000" stroke-miterlimit="10" stroke-width="20px"
        d="m132.34,249.7H47.66c-10.09,0-18.59-7.51-19.85-17.52L10.28,91.95c-.15-1.19.78-2.25,1.98-2.25h155.47c1.2,0,2.13,1.05,1.98,2.25l-17.53,140.23c-1.25,10.01-9.76,17.52-19.85,17.52Z" />
      <path fill="none" stroke="#000" stroke-miterlimit="10" stroke-width="20px"
        d="m169,90H11c-.55,0-1-.45-1-1L38.78,13.22c.74-1.94,2.6-3.22,4.67-3.22h93.1c2.08,0,3.94,1.28,4.67,3.22l28.78,75.78c0,.55-.45,1-1,1Z" />
      <line fill="none" stroke="#000" stroke-miterlimit="10" stroke-width="20px" x1="20" y1="188.85" x2="160"
        y2="188.85" />
    </g>
  </g>
</svg>